# xmcd CD database file
#
# Track frame offsets:
#	150
#	14648
#	34133
#	50433
#	64378
#	81945
#	100597
#	109023
#	124337
#	136355
#	151317
#	168274
#	184605
#	200396
#	216100
#
# Disc length: 3153 seconds
#
# Revision: 6
# Processed by: cddbd v1.5.2PL0 Copyright (c) Steve Scherf et al.
# Submitted via: CDex 1.70beta2
#
DISCID=cf0c4f0f
DTITLE=Dirk Zöllner and Trio Bravo - Zöllner Classics
DYEAR=2000
DGENRE=DDR-Rock/Pop
TTITLE0=Strohfeuer
TTITLE1=Glücklich
TTITLE2=Das letzte Lied (Carolyn)
TTITLE3=Aus Liebe
TTITLE4=Ich kann dich nicht riechen
TTITLE5=Immer einer
TTITLE6=Die von früher
TTITLE7=Alles oder nichts
TTITLE8=Käfer auf'm Blatt
TTITLE9=Annabelle
TTITLE10=Zwischen den Stühlen
TTITLE11=Königin
TTITLE12=Good bye, Cherie
TTITLE13=Melancoolie
TTITLE14=Viel zu weit
EXTD=YEAR: 2000
EXTT0=
EXTT1=
EXTT2=
EXTT3=
EXTT4=
EXTT5=
EXTT6=
EXTT7=
EXTT8=
EXTT9=
EXTT10=
EXTT11=
EXTT12=
EXTT13=
EXTT14=
PLAYORDER=
